<?xml version="1.0" encoding="utf-8"?>
<!-- Generator: Adobe Illustrator 24.0.3, SVG Export Plug-In . SVG Version: 6.00 Build 0)  -->
<svg version="1.1" id="Layer_1" xmlns="http://www.w3.org/2000/svg" xmlns:xlink="http://www.w3.org/1999/xlink" x="0px" y="0px"
	 viewBox="0 0 56.7 56.7" style="enable-background:new 0 0 56.7 56.7;" xml:space="preserve">
<style type="text/css">
	.st0{fill:#FFFFFF;}
</style>
<path class="st0" d="M30.4,28.2L50,8.6C50.6,8,50.6,7,50,6.4s-1.5-0.6-2.1,0L28.3,26.1L8.8,6.6C8.2,6,7.3,6,6.7,6.6s-0.6,1.5,0,2.1
	l19.5,19.5L6.7,47.6c-0.6,0.6-0.6,1.5,0,2.1C7,50,7.4,50.2,7.8,50.2c0.4,0,0.8-0.1,1.1-0.4l19.5-19.5L48,49.9
	c0.3,0.3,0.7,0.4,1.1,0.4s0.8-0.1,1.1-0.4c0.6-0.6,0.6-1.5,0-2.1L30.4,28.2z"/>
</svg>
