<?xml version="1.0" encoding="utf-8"?>
<!-- Generator: Adobe Illustrator 24.0.3, SVG Export Plug-In . SVG Version: 6.00 Build 0)  -->
<svg version="1.1" id="Layer_1" xmlns="http://www.w3.org/2000/svg" xmlns:xlink="http://www.w3.org/1999/xlink" x="0px" y="0px"
	 viewBox="0 0 56.7 56.7" style="enable-background:new 0 0 56.7 56.7;" xml:space="preserve">
<style type="text/css">
	.st0{fill:none;stroke:#FFFFFF;stroke-width:3;stroke-miterlimit:10;}
	.st1{fill:#FFFFFF;}
</style>
<g>
	<circle class="st0" cx="28.5" cy="28.3" r="24.9"/>
	<g>
		<path class="st1" d="M23.4,23.6v-1.5c0.4-0.2,1-0.4,1.8-0.6c0.7-0.2,1.5-0.4,2.3-0.5s1.6-0.3,2.5-0.4c0.8-0.1,1.5-0.2,2.1-0.2
			l0.8,0.5l-4,19H32v1.5c-0.4,0.3-0.8,0.5-1.4,0.8s-1,0.6-1.6,0.8s-1.2,0.3-1.7,0.4c-0.6,0.1-1.2,0.2-1.7,0.2
			c-1.1,0-1.9-0.2-2.3-0.6c-0.4-0.4-0.6-0.9-0.6-1.4c0-0.6,0-1.2,0.1-1.7s0.2-1.2,0.4-1.9l3-13.7L23.4,23.6z M27.1,13.6
			c0-1,0.3-1.8,1-2.3c0.7-0.6,1.5-0.8,2.6-0.8s2,0.3,2.7,0.8c0.7,0.6,1,1.3,1,2.3c0,0.9-0.3,1.7-1,2.3c-0.7,0.6-1.6,0.8-2.7,0.8
			c-1,0-1.9-0.3-2.6-0.8C27.4,15.3,27.1,14.6,27.1,13.6z"/>
	</g>
</g>
</svg>
