<?xml version="1.0" encoding="utf-8"?>
<!-- Generator: Adobe Illustrator 24.0.3, SVG Export Plug-In . SVG Version: 6.00 Build 0)  -->
<svg version="1.1" id="Layer_1" xmlns="http://www.w3.org/2000/svg" xmlns:xlink="http://www.w3.org/1999/xlink" x="0px" y="0px"
	 viewBox="0 0 56.7 56.7" style="enable-background:new 0 0 56.7 56.7;" xml:space="preserve">
<style type="text/css">
	.st0{fill:#FFFFFF;stroke:#FFFFFF;stroke-miterlimit:10;}
</style>
<path class="st0" d="M52.3,23.2h-4.4c-0.4-1.7-1.1-3.3-2-4.9l3.2-3.2c0.8-0.8,0.8-2,0-2.8l-4.4-4.4c-0.8-0.8-2.1-0.8-2.8,0l-3.2,3.2
	c-1.7-0.9-3.3-1.6-5-2.1V4.4c0-1.1-0.9-2-2-2h-6.3c-1.1,0-2,0.9-2,2V9c-1.8,0.5-3.4,1.2-5,2.1l-3.3-3.3C14.3,7,13,7,12.2,7.8
	l-4.4,4.4C7,13,7,14.2,7.8,15l3.4,3.4c-0.9,1.5-1.5,3.1-2,4.8H4.4c-1.1,0-2,0.9-2,2v6.3c0,1.1,0.9,2,2,2h4.8
	c0.5,1.7,1.1,3.4,2.1,4.9L8,41.7c-0.4,0.4-0.6,0.9-0.6,1.4s0.2,1,0.6,1.4l4.4,4.4c0.8,0.8,2.1,0.8,2.8,0l3.4-3.4
	c1.5,0.9,3.2,1.6,4.9,2v4.6c0,1.1,0.9,2,2,2h6.3c1.1,0,2-0.9,2-2v-4.6c1.7-0.4,3.3-1.1,4.8-2l3.2,3.2c0.8,0.8,2.1,0.8,2.8,0l4.4-4.4
	c0.8-0.8,0.8-2,0-2.8l-3.1-3.1c0.9-1.6,1.6-3.3,2.1-5h4.4c1.1,0,2-0.9,2-2v-6.3C54.3,24.1,53.4,23.2,52.3,23.2z M52.3,31.5h-6
	l-0.2,0.8c-0.5,2.1-1.3,4-2.4,5.8l-0.4,0.7l4.3,4.3L43,47.5l-4.3-4.3L38,43.6c-1.7,1.1-3.6,1.9-5.6,2.3l-0.8,0.2v6.2h-6.3v-6.2
	l-0.8-0.2c-2-0.4-3.9-1.2-5.7-2.4l-0.7-0.4l-4.5,4.5l-4.4-4.4l4.5-4.5L13.4,38c-1.1-1.8-2-3.7-2.4-5.8l-0.2-0.8H4.4v-6.3h6.4
	l0.2-0.8c0.4-2,1.2-3.9,2.3-5.6l0.4-0.7l-4.5-4.5l4.4-4.4l4.4,4.4l0.7-0.4c1.8-1.2,3.8-2,5.8-2.4l0.8-0.2V4.4h6.3v6.2l0.8,0.2
	c2,0.5,4,1.3,5.8,2.4l0.7,0.4l4.3-4.3l4.4,4.4L43.3,18l0.4,0.7c1.1,1.8,1.9,3.7,2.4,5.7l0.2,0.8h6L52.3,31.5L52.3,31.5z M28.5,18.1
	c-5.7,0-10.3,4.6-10.3,10.3s4.6,10.3,10.3,10.3s10.3-4.6,10.3-10.3S34.2,18.1,28.5,18.1z M28.5,36.6c-4.6,0-8.3-3.7-8.3-8.3
	s3.7-8.3,8.3-8.3s8.3,3.7,8.3,8.3S33.1,36.6,28.5,36.6z"/>
</svg>
